<?xml version="1.0" encoding="UTF-8"?><svg id="Clinisys_LaboratorySolutionsLogo_bk_rgb" xmlns="http://www.w3.org/2000/svg" viewBox="0 0 304 56"><defs><style>.cls-1{fill:none;}</style></defs><rect class="cls-1" width="304" height="56"/><g><path d="M15.14,6.27h-1.85c-.11-.53-.3-1-.57-1.4-.27-.4-.6-.74-.98-1.02s-.81-.48-1.28-.62c-.47-.14-.96-.21-1.46-.21-.93,0-1.76,.23-2.51,.7-.75,.47-1.34,1.16-1.78,2.07-.44,.91-.66,2.03-.66,3.35s.22,2.44,.66,3.35c.44,.91,1.04,1.6,1.78,2.07,.75,.47,1.58,.7,2.51,.7,.51,0,.99-.07,1.46-.21,.47-.14,.89-.35,1.28-.62,.38-.28,.71-.62,.98-1.02s.46-.87,.57-1.4h1.85c-.14,.78-.39,1.48-.76,2.1-.37,.62-.82,1.14-1.37,1.57s-1.16,.76-1.84,.98c-.68,.22-1.4,.34-2.17,.34-1.3,0-2.46-.32-3.47-.96-1.02-.64-1.81-1.54-2.39-2.71-.58-1.17-.87-2.57-.87-4.18s.29-3,.87-4.18c.58-1.17,1.38-2.08,2.39-2.71,1.01-.64,2.17-.95,3.47-.95,.77,0,1.49,.11,2.17,.34,.68,.22,1.29,.55,1.84,.98,.55,.43,1,.95,1.37,1.57,.37,.61,.62,1.31,.76,2.1Z"/><path d="M19.1,1.5v15.27h-1.76V1.5h1.76Z"/><path d="M22.92,3.41c-.34,0-.64-.12-.88-.35-.25-.23-.37-.51-.37-.84s.12-.61,.37-.84,.54-.35,.88-.35,.64,.12,.88,.35,.37,.51,.37,.84-.12,.61-.37,.84c-.25,.23-.54,.35-.88,.35Zm-.9,13.36V5.32h1.76v11.45h-1.76Z"/><path d="M28.47,9.88v6.89h-1.76V5.32h1.7v1.79h.15c.27-.58,.68-1.05,1.22-1.41s1.25-.53,2.12-.53c.78,0,1.45,.16,2.04,.47,.58,.32,1.04,.79,1.36,1.43,.32,.64,.48,1.45,.48,2.42v7.28h-1.76v-7.16c0-.9-.23-1.6-.7-2.11-.47-.5-1.11-.76-1.92-.76-.56,0-1.06,.12-1.5,.37s-.79,.6-1.04,1.07c-.25,.47-.38,1.03-.38,1.7Z"/><path d="M39.35,3.41c-.34,0-.64-.12-.88-.35-.25-.23-.37-.51-.37-.84s.12-.61,.37-.84,.54-.35,.88-.35,.64,.12,.88,.35,.37,.51,.37,.84-.12,.61-.37,.84c-.25,.23-.54,.35-.88,.35Zm-.89,13.36V5.32h1.76v11.45h-1.76Z"/><path d="M50.88,7.88l-1.58,.45c-.1-.26-.24-.52-.44-.77s-.45-.46-.78-.62-.75-.25-1.26-.25c-.7,0-1.29,.16-1.75,.48-.46,.32-.7,.73-.7,1.22,0,.44,.16,.78,.48,1.04,.32,.25,.81,.46,1.49,.63l1.7,.42c1.02,.25,1.79,.63,2.29,1.14,.5,.51,.75,1.17,.75,1.97,0,.66-.19,1.24-.56,1.76-.38,.52-.9,.92-1.57,1.22-.67,.3-1.45,.45-2.34,.45-1.17,0-2.14-.25-2.9-.76-.77-.51-1.25-1.25-1.45-2.22l1.67-.42c.16,.62,.46,1.08,.91,1.39,.45,.31,1.03,.46,1.75,.46,.82,0,1.47-.17,1.96-.53,.48-.35,.73-.77,.73-1.26,0-.4-.14-.73-.42-1-.28-.27-.71-.47-1.28-.61l-1.91-.45c-1.05-.25-1.82-.64-2.31-1.16s-.73-1.18-.73-1.97c0-.65,.18-1.22,.55-1.71s.87-.89,1.5-1.17c.63-.28,1.35-.42,2.16-.42,1.13,0,2.02,.25,2.67,.75,.65,.5,1.11,1.15,1.38,1.97Z"/><path d="M53.72,21.07c-.3,0-.56-.02-.8-.07-.23-.05-.39-.09-.48-.14l.45-1.55c.43,.11,.81,.15,1.13,.12,.33-.03,.62-.18,.88-.44s.49-.68,.71-1.26l.33-.89-4.24-11.51h1.91l3.16,9.13h.12l3.16-9.13h1.91l-4.86,13.12c-.22,.59-.49,1.08-.81,1.47-.32,.39-.7,.68-1.12,.87-.43,.19-.9,.28-1.44,.28Z"/><path d="M70.99,7.88l-1.58,.45c-.1-.26-.24-.52-.44-.77s-.45-.46-.78-.62-.75-.25-1.26-.25c-.7,0-1.29,.16-1.75,.48-.46,.32-.7,.73-.7,1.22,0,.44,.16,.78,.48,1.04,.32,.25,.81,.46,1.49,.63l1.7,.42c1.02,.25,1.79,.63,2.29,1.14,.5,.51,.75,1.17,.75,1.97,0,.66-.19,1.24-.56,1.76-.38,.52-.9,.92-1.57,1.22-.67,.3-1.45,.45-2.34,.45-1.17,0-2.14-.25-2.9-.76-.77-.51-1.25-1.25-1.45-2.22l1.67-.42c.16,.62,.46,1.08,.91,1.39,.45,.31,1.03,.46,1.75,.46,.82,0,1.47-.17,1.96-.53,.48-.35,.73-.77,.73-1.26,0-.4-.14-.73-.42-1-.28-.27-.71-.47-1.28-.61l-1.91-.45c-1.05-.25-1.82-.64-2.31-1.16s-.73-1.18-.73-1.97c0-.65,.18-1.22,.55-1.71s.87-.89,1.5-1.17c.63-.28,1.35-.42,2.16-.42,1.13,0,2.02,.25,2.67,.75,.65,.5,1.11,1.15,1.38,1.97Z"/></g><g><path d="M15.5,29.54c-1.53-.81-3.34-1.22-5.43-1.22H2.31v20.36h7.84c2.07,0,3.86-.41,5.38-1.22,1.52-.81,2.69-1.98,3.52-3.5s1.24-3.34,1.24-5.46-.42-3.94-1.25-5.46-2.01-2.69-3.54-3.5Zm-1.34,12.29c-.38,.79-.92,1.36-1.63,1.68-.71,.33-1.57,.49-2.58,.49h-2.11v-10.98h1.95c1.06,0,1.96,.16,2.69,.49,.73,.33,1.29,.89,1.67,1.68,.38,.8,.57,1.9,.57,3.32s-.19,2.53-.56,3.32Z"/><path d="M34.12,34.66c-.61-.45-1.35-.81-2.22-1.06-.87-.25-1.85-.38-2.94-.38-1.52,0-2.78,.24-3.8,.71-1.02,.47-1.79,1.1-2.31,1.89-.53,.79-.82,1.64-.89,2.57h5.05c.06-.47,.26-.82,.59-1.05,.33-.23,.76-.34,1.28-.34,.48,0,.87,.11,1.17,.32s.46,.52,.46,.92v.04c0,.29-.12,.53-.35,.7-.23,.18-.61,.31-1.13,.41-.52,.1-1.21,.18-2.06,.24-.79,.06-1.52,.19-2.2,.39-.68,.2-1.28,.49-1.79,.87-.51,.38-.91,.86-1.19,1.46-.29,.59-.43,1.31-.43,2.14,0,1.01,.21,1.85,.64,2.51s1.01,1.14,1.75,1.47c.75,.32,1.61,.48,2.58,.48,.66,0,1.27-.08,1.83-.24,.55-.16,1.05-.41,1.48-.77s.8-.81,1.11-1.38h.12v2.15h5.13v-10.46c0-.71-.16-1.37-.48-1.97-.32-.61-.79-1.14-1.4-1.59Zm-3.57,8.62c0,.46-.12,.86-.35,1.18-.23,.32-.53,.57-.9,.75-.37,.17-.76,.26-1.18,.26-.46,0-.85-.11-1.14-.34-.3-.23-.45-.55-.45-.97,0-.26,.06-.5,.19-.72,.13-.22,.33-.4,.6-.55,.27-.15,.62-.26,1.04-.32,.22-.03,.43-.07,.63-.11,.2-.04,.39-.08,.58-.13,.18-.05,.36-.1,.52-.15s.32-.11,.46-.17v1.27Z"/><polygon points="45.64 42.68 45.48 42.68 41.31 28.32 35.06 28.32 41.79 48.68 49.34 48.68 56.06 28.32 49.82 28.32 45.64 42.68"/><path d="M59.72,31.82c.74,0,1.38-.25,1.9-.74,.53-.49,.79-1.08,.79-1.77s-.26-1.28-.79-1.77c-.53-.49-1.16-.74-1.91-.74s-1.38,.25-1.91,.74c-.53,.49-.8,1.08-.8,1.77s.27,1.28,.8,1.77c.53,.49,1.17,.74,1.92,.74Z"/><rect x="56.97" y="33.41" width="5.49" height="15.27"/><path d="M77.84,33.95c-.8-.49-1.74-.74-2.82-.74s-2.1,.28-2.94,.83c-.84,.55-1.42,1.31-1.76,2.28h-.16v-2.9h-5.21v15.27h5.49v-8.59c0-.5,.1-.94,.28-1.3,.18-.36,.44-.64,.77-.83,.34-.2,.73-.29,1.18-.29,.69,0,1.23,.21,1.62,.65,.39,.43,.58,1.02,.57,1.78v8.59h5.49v-9.74c0-1.11-.21-2.09-.65-2.95s-1.06-1.54-1.86-2.03Z"/><path d="M88.68,37.72c.36-.28,.78-.41,1.25-.41,.61,0,1.11,.21,1.5,.63,.39,.42,.62,1.03,.69,1.83h5.09c0-1.33-.31-2.48-.91-3.46-.6-.98-1.45-1.75-2.55-2.29s-2.39-.81-3.89-.81c-1.66,0-3.08,.33-4.26,.99-1.18,.66-2.09,1.58-2.71,2.76-.63,1.18-.95,2.56-.95,4.12s.32,2.94,.95,4.12c.63,1.18,1.54,2.11,2.71,2.76,1.18,.66,2.6,.99,4.26,.99,1.51,0,2.81-.27,3.9-.82,1.09-.54,1.93-1.31,2.53-2.31,.6-1,.9-2.17,.92-3.51h-5.09c-.04,.53-.16,.98-.35,1.35-.2,.37-.45,.65-.76,.84-.31,.19-.67,.28-1.07,.28-.48,0-.89-.14-1.25-.41-.36-.27-.64-.69-.84-1.24-.2-.55-.3-1.25-.3-2.08s.1-1.53,.3-2.08c.2-.55,.48-.97,.84-1.24Z"/><rect x="98.78" y="33.41" width="5.49" height="15.27"/><path d="M101.54,31.82c.74,0,1.38-.25,1.9-.74,.53-.49,.79-1.08,.79-1.77s-.26-1.28-.79-1.77c-.53-.49-1.17-.74-1.91-.74s-1.38,.25-1.91,.74c-.53,.49-.79,1.08-.79,1.77s.27,1.28,.79,1.77c.53,.49,1.17,.74,1.92,.74Z"/></g></svg>